G04 Layer_Color=65535*
%FSLAX25Y25*%
%MOIN*%
G70*
G01*
G75*
%ADD17C,0.01000*%
%ADD22C,0.00984*%
%ADD23C,0.02362*%
%ADD24C,0.00787*%
D17*
X41899Y18798D02*
X39899D01*
X40899D01*
Y13800D01*
X39899Y12800D01*
X38900D01*
X37900Y13800D01*
X43898Y12800D02*
X45897D01*
X44898D01*
Y18798D01*
X43898Y17798D01*
X92676Y80025D02*
X93675Y81025D01*
Y83024D01*
X92676Y84024D01*
X88677D01*
X87677Y83024D01*
Y81025D01*
X88677Y80025D01*
X87677Y78026D02*
Y76026D01*
Y77026D01*
X93675D01*
X92676Y78026D01*
X148763Y92959D02*
X147763Y93959D01*
X145764D01*
X144764Y92959D01*
Y88960D01*
X145764Y87961D01*
X147763D01*
X148763Y88960D01*
X154761Y87961D02*
X150762D01*
X154761Y91959D01*
Y92959D01*
X153761Y93959D01*
X151761D01*
X150762Y92959D01*
X117266Y87054D02*
X116267Y88053D01*
X114267D01*
X113268Y87054D01*
Y83055D01*
X114267Y82055D01*
X116267D01*
X117266Y83055D01*
X119266Y87054D02*
X120265Y88053D01*
X122265D01*
X123265Y87054D01*
Y86054D01*
X122265Y85054D01*
X121265D01*
X122265D01*
X123265Y84054D01*
Y83055D01*
X122265Y82055D01*
X120265D01*
X119266Y83055D01*
X125140Y173668D02*
X124141Y174667D01*
X122141D01*
X121142Y173668D01*
Y169669D01*
X122141Y168669D01*
X124141D01*
X125140Y169669D01*
X130139Y174667D02*
X128139D01*
X127140Y173668D01*
Y169669D01*
X128139Y168669D01*
X130139D01*
X131139Y169669D01*
Y173668D01*
X130139Y174667D01*
X133138Y168669D02*
Y174667D01*
X137137Y168669D01*
Y174667D01*
X139136Y168669D02*
Y174667D01*
X143135Y168669D01*
Y174667D01*
X145134Y168669D02*
X147133D01*
X146134D01*
Y174667D01*
X145134Y173668D01*
X34564Y169834D02*
Y163836D01*
X37563D01*
X38563Y164836D01*
Y168835D01*
X37563Y169834D01*
X34564D01*
X40562Y163836D02*
X42561D01*
X41561D01*
Y169834D01*
X40562Y168835D01*
X14864Y169834D02*
Y163836D01*
X17863D01*
X18862Y164836D01*
Y168835D01*
X17863Y169834D01*
X14864D01*
X24861Y163836D02*
X20862D01*
X24861Y167835D01*
Y168835D01*
X23861Y169834D01*
X21861D01*
X20862Y168835D01*
X78317Y42214D02*
X74318D01*
Y39215D01*
X76318D01*
X74318D01*
Y36216D01*
X80316D02*
X82315D01*
X81316D01*
Y42214D01*
X80316Y41214D01*
X45300Y104100D02*
Y110098D01*
X48299D01*
X49299Y109098D01*
Y107099D01*
X48299Y106099D01*
X45300D01*
X47299D02*
X49299Y104100D01*
X51298D02*
X53297D01*
X52298D01*
Y110098D01*
X51298Y109098D01*
X3032Y105677D02*
Y111675D01*
X6030D01*
X7030Y110676D01*
Y108676D01*
X6030Y107676D01*
X3032D01*
X5031D02*
X7030Y105677D01*
X13028D02*
X9030D01*
X13028Y109676D01*
Y110676D01*
X12029Y111675D01*
X10029D01*
X9030Y110676D01*
X77849Y139028D02*
X79848D01*
X78848D01*
Y133029D01*
X77849D01*
X79848D01*
X86846Y138028D02*
X85846Y139028D01*
X83847D01*
X82847Y138028D01*
Y134029D01*
X83847Y133029D01*
X85846D01*
X86846Y134029D01*
X88845Y133029D02*
X90845D01*
X89845D01*
Y139028D01*
X88845Y138028D01*
D22*
X43899Y52049D02*
G03*
X43899Y52049I-492J0D01*
G01*
X102106Y108189D02*
G03*
X102106Y108189I-492J0D01*
G01*
D23*
X93740Y114085D02*
G03*
X93740Y114085I-1181J0D01*
G01*
D24*
X108346Y74575D02*
Y77724D01*
X102441Y74575D02*
Y77724D01*
X147717Y74575D02*
Y77724D01*
X153622Y74575D02*
Y77724D01*
X33937Y152921D02*
Y160402D01*
X42992Y152921D02*
Y160402D01*
X33937D02*
X42992D01*
X35512Y136386D02*
X41417D01*
X33937Y138354D02*
Y145047D01*
X41417Y136386D02*
X42992Y138354D01*
X33937D02*
X35512Y136386D01*
X42992Y138354D02*
Y145047D01*
X14252Y152921D02*
Y160402D01*
X23307Y152921D02*
Y160402D01*
X14252D02*
X23307D01*
X15827Y136386D02*
X21732D01*
X14252Y138354D02*
Y145047D01*
X21732Y136386D02*
X23307Y138354D01*
X14252D02*
X15827Y136386D01*
X23307Y138354D02*
Y145047D01*
X110033Y21788D02*
Y32812D01*
X89167Y21788D02*
Y32812D01*
X110033D01*
X89167Y21788D02*
X110033D01*
X39843Y108827D02*
Y110402D01*
X37087Y108827D02*
Y110402D01*
X20157Y108827D02*
Y110402D01*
X17402Y108827D02*
Y110402D01*
X86654Y129833D02*
X96496D01*
X86654Y110148D02*
X96496D01*
X86654D02*
Y129833D01*
X96496Y110148D02*
Y129833D01*
M02*
